<svg width="500" height="500" viewBox="0 0 500 500" fill="none" xmlns="http://www.w3.org/2000/svg">
<rect x="265" y="278" width="6.08109" height="6.06996" rx="1.34409" fill="white"/>
<rect x="289.324" y="278" width="6.08109" height="6.06996" rx="1.34409" fill="white"/>
<rect x="313.649" y="278" width="6.08109" height="6.06996" rx="1.34409" fill="white"/>
<rect x="337.973" y="278" width="6.08109" height="6.06996" rx="1.34409" fill="white"/>
<rect x="362.297" y="278" width="6.08109" height="6.06996" rx="1.34409" fill="white"/>
<rect x="386.622" y="278" width="6.08109" height="6.06996" rx="1.34409" fill="white"/>
<rect x="410.946" y="278" width="6.08109" height="6.06996" rx="1.34409" fill="white"/>
<rect x="435.271" y="278" width="6.08109" height="6.06996" rx="1.34409" fill="white"/>
<rect x="459.595" y="278" width="6.08109" height="6.06996" rx="1.34409" fill="white"/>
<rect x="483.919" y="278" width="6.08109" height="6.06996" rx="1.34409" fill="white"/>
<rect x="265" y="302.28" width="6.08109" height="6.06996" rx="1.34409" fill="white"/>
<rect x="289.324" y="302.28" width="6.08109" height="6.06996" rx="1.34409" fill="white"/>
<rect x="313.649" y="302.28" width="6.08109" height="6.06996" rx="1.34409" fill="white"/>
<rect x="337.973" y="302.28" width="6.08109" height="6.06996" rx="1.34409" fill="white"/>
<rect x="362.297" y="302.28" width="6.08109" height="6.06996" rx="1.34409" fill="white"/>
<rect x="386.622" y="302.28" width="6.08109" height="6.06996" rx="1.34409" fill="white"/>
<rect x="410.946" y="302.28" width="6.08109" height="6.06996" rx="1.34409" fill="white"/>
<rect x="435.271" y="302.28" width="6.08109" height="6.06996" rx="1.34409" fill="white"/>
<rect x="459.595" y="302.28" width="6.08109" height="6.06996" rx="1.34409" fill="white"/>
<rect x="483.919" y="302.28" width="6.08109" height="6.06996" rx="1.34409" fill="white"/>
<rect x="265" y="326.56" width="6.08109" height="6.06996" rx="1.34409" fill="white"/>
<rect x="289.324" y="326.56" width="6.08109" height="6.06996" rx="1.34409" fill="white"/>
<rect x="313.649" y="326.56" width="6.08109" height="6.06996" rx="1.34409" fill="white"/>
<rect x="337.973" y="326.56" width="6.08109" height="6.06996" rx="1.34409" fill="white"/>
<rect x="362.297" y="326.56" width="6.08109" height="6.06996" rx="1.34409" fill="white"/>
<rect x="386.622" y="326.56" width="6.08109" height="6.06996" rx="1.34409" fill="white"/>
<rect x="410.946" y="326.56" width="6.08109" height="6.06996" rx="1.34409" fill="white"/>
<rect x="435.271" y="326.56" width="6.08109" height="6.06996" rx="1.34409" fill="white"/>
<rect x="459.595" y="326.56" width="6.08109" height="6.06996" rx="1.34409" fill="white"/>
<rect x="483.919" y="326.56" width="6.08109" height="6.06996" rx="1.34409" fill="white"/>
<rect x="265" y="350.839" width="6.08109" height="6.06996" rx="1.34409" fill="white"/>
<rect x="289.324" y="350.839" width="6.08109" height="6.06996" rx="1.34409" fill="white"/>
<rect x="313.649" y="350.839" width="6.08109" height="6.06996" rx="1.34409" fill="white"/>
<rect x="337.973" y="350.839" width="6.08109" height="6.06996" rx="1.34409" fill="white"/>
<rect x="362.297" y="350.839" width="6.08109" height="6.06996" rx="1.34409" fill="white"/>
<rect x="386.622" y="350.839" width="6.08109" height="6.06996" rx="1.34409" fill="white"/>
<rect x="410.946" y="350.839" width="6.08109" height="6.06996" rx="1.34409" fill="white"/>
<rect x="435.271" y="350.839" width="6.08109" height="6.06996" rx="1.34409" fill="white"/>
<rect x="459.595" y="350.839" width="6.08109" height="6.06996" rx="1.34409" fill="white"/>
<rect x="483.919" y="350.839" width="6.08109" height="6.06996" rx="1.34409" fill="white"/>
<rect x="265" y="375.119" width="6.08109" height="6.06996" rx="1.34409" fill="white"/>
<rect x="289.324" y="375.119" width="6.08109" height="6.06996" rx="1.34409" fill="white"/>
<rect x="313.649" y="375.119" width="6.08109" height="6.06996" rx="1.34409" fill="white"/>
<rect x="337.973" y="375.119" width="6.08109" height="6.06996" rx="1.34409" fill="white"/>
<rect x="362.297" y="375.119" width="6.08109" height="6.06996" rx="1.34409" fill="white"/>
<rect x="386.622" y="375.119" width="6.08109" height="6.06996" rx="1.34409" fill="white"/>
<rect x="410.946" y="375.119" width="6.08109" height="6.06996" rx="1.34409" fill="white"/>
<rect x="435.271" y="375.119" width="6.08109" height="6.06996" rx="1.34409" fill="white"/>
<rect x="459.595" y="375.119" width="6.08109" height="6.06996" rx="1.34409" fill="white"/>
<rect x="483.919" y="375.119" width="6.08109" height="6.06996" rx="1.34409" fill="white"/>
<rect x="265" y="399.399" width="6.08109" height="6.06995" rx="1.34409" fill="white"/>
<rect x="289.324" y="399.399" width="6.08109" height="6.06995" rx="1.34409" fill="white"/>
<rect x="313.649" y="399.399" width="6.08109" height="6.06995" rx="1.34409" fill="white"/>
<rect x="337.973" y="399.399" width="6.08109" height="6.06995" rx="1.34409" fill="white"/>
<rect x="362.297" y="399.399" width="6.08109" height="6.06995" rx="1.34409" fill="white"/>
<rect x="386.622" y="399.399" width="6.08109" height="6.06995" rx="1.34409" fill="white"/>
<rect x="410.946" y="399.399" width="6.08109" height="6.06995" rx="1.34409" fill="white"/>
<rect x="435.271" y="399.399" width="6.08109" height="6.06995" rx="1.34409" fill="white"/>
<rect x="459.595" y="399.399" width="6.08109" height="6.06995" rx="1.34409" fill="white"/>
<rect x="483.919" y="399.399" width="6.08109" height="6.06995" rx="1.34409" fill="white"/>
<rect x="265" y="423.679" width="6.08109" height="6.06998" rx="1.34409" fill="white"/>
<rect x="265" y="447.096" width="6.08109" height="6.06995" rx="1.34409" fill="white"/>
<rect x="265" y="470.513" width="6.08109" height="6.06995" rx="1.34409" fill="white"/>
<rect x="265" y="493.93" width="6.08109" height="6.06996" rx="1.34409" fill="white"/>
<rect x="289.324" y="423.679" width="6.08109" height="6.06998" rx="1.34409" fill="white"/>
<rect x="289.324" y="447.096" width="6.08109" height="6.06995" rx="1.34409" fill="white"/>
<rect x="289.324" y="470.513" width="6.08109" height="6.06995" rx="1.34409" fill="white"/>
<rect x="289.324" y="493.93" width="6.08109" height="6.06996" rx="1.34409" fill="white"/>
<rect x="313.649" y="423.679" width="6.08109" height="6.06998" rx="1.34409" fill="white"/>
<rect x="313.649" y="447.096" width="6.08109" height="6.06995" rx="1.34409" fill="white"/>
<rect x="313.649" y="470.513" width="6.08109" height="6.06995" rx="1.34409" fill="white"/>
<rect x="313.649" y="493.93" width="6.08109" height="6.06996" rx="1.34409" fill="white"/>
<rect x="337.973" y="423.679" width="6.08109" height="6.06998" rx="1.34409" fill="white"/>
<rect x="337.973" y="447.096" width="6.08109" height="6.06995" rx="1.34409" fill="white"/>
<rect x="337.973" y="470.513" width="6.08109" height="6.06995" rx="1.34409" fill="white"/>
<rect x="337.973" y="493.93" width="6.08109" height="6.06996" rx="1.34409" fill="white"/>
<rect x="362.297" y="423.679" width="6.08109" height="6.06998" rx="1.34409" fill="white"/>
<rect x="362.297" y="447.096" width="6.08109" height="6.06995" rx="1.34409" fill="white"/>
<rect x="362.297" y="470.513" width="6.08109" height="6.06995" rx="1.34409" fill="white"/>
<rect x="362.297" y="493.93" width="6.08109" height="6.06996" rx="1.34409" fill="white"/>
<rect x="386.622" y="423.679" width="6.08109" height="6.06998" rx="1.34409" fill="white"/>
<rect x="386.622" y="447.096" width="6.08109" height="6.06995" rx="1.34409" fill="white"/>
<rect x="386.622" y="470.513" width="6.08109" height="6.06995" rx="1.34409" fill="white"/>
<rect x="386.622" y="493.93" width="6.08109" height="6.06996" rx="1.34409" fill="white"/>
<rect x="410.946" y="423.679" width="6.08109" height="6.06998" rx="1.34409" fill="white"/>
<rect x="410.946" y="447.096" width="6.08109" height="6.06995" rx="1.34409" fill="white"/>
<rect x="410.946" y="470.513" width="6.08109" height="6.06995" rx="1.34409" fill="white"/>
<rect x="410.946" y="493.93" width="6.08109" height="6.06996" rx="1.34409" fill="white"/>
<rect x="435.271" y="423.679" width="6.08109" height="6.06998" rx="1.34409" fill="white"/>
<rect x="435.271" y="447.096" width="6.08109" height="6.06995" rx="1.34409" fill="white"/>
<rect x="435.271" y="470.513" width="6.08109" height="6.06995" rx="1.34409" fill="white"/>
<rect x="435.271" y="493.93" width="6.08109" height="6.06996" rx="1.34409" fill="white"/>
<rect x="459.595" y="423.679" width="6.08109" height="6.06998" rx="1.34409" fill="white"/>
<rect x="459.595" y="447.096" width="6.08109" height="6.06995" rx="1.34409" fill="white"/>
<rect x="459.595" y="470.513" width="6.08109" height="6.06995" rx="1.34409" fill="white"/>
<rect x="459.595" y="493.93" width="6.08109" height="6.06996" rx="1.34409" fill="white"/>
<rect x="483.919" y="423.679" width="6.08109" height="6.06998" rx="1.34409" fill="white"/>
<rect x="483.919" y="447.096" width="6.08109" height="6.06995" rx="1.34409" fill="white"/>
<rect x="483.919" y="470.513" width="6.08109" height="6.06995" rx="1.34409" fill="white"/>
<rect x="483.919" y="493.93" width="6.08109" height="6.06996" rx="1.34409" fill="white"/>
<rect x="265" y="3" width="6.08109" height="6.06996" rx="1.34409" fill="white"/>
<rect x="289.324" y="3" width="6.08109" height="6.06996" rx="1.34409" fill="white"/>
<rect x="313.649" y="3" width="6.08109" height="6.06996" rx="1.34409" fill="white"/>
<rect x="337.973" y="3" width="6.08109" height="6.06996" rx="1.34409" fill="white"/>
<rect x="362.297" y="3" width="6.08109" height="6.06996" rx="1.34409" fill="white"/>
<rect x="386.622" y="3" width="6.08109" height="6.06996" rx="1.34409" fill="white"/>
<rect x="410.946" y="3" width="6.0811" height="6.06996" rx="1.34409" fill="white"/>
<rect x="435.271" y="3" width="6.08109" height="6.06996" rx="1.34409" fill="white"/>
<rect x="459.595" y="3" width="6.0811" height="6.06996" rx="1.34409" fill="white"/>
<rect x="483.919" y="3" width="6.08109" height="6.06996" rx="1.34409" fill="white"/>
<rect x="265" y="27.2798" width="6.08109" height="6.06996" rx="1.34409" fill="white"/>
<rect x="289.324" y="27.2798" width="6.08109" height="6.06996" rx="1.34409" fill="white"/>
<rect x="313.649" y="27.2798" width="6.08109" height="6.06996" rx="1.34409" fill="white"/>
<rect x="337.973" y="27.2798" width="6.08109" height="6.06996" rx="1.34409" fill="white"/>
<rect x="362.297" y="27.2798" width="6.08109" height="6.06996" rx="1.34409" fill="white"/>
<rect x="386.622" y="27.2798" width="6.08109" height="6.06996" rx="1.34409" fill="white"/>
<rect x="410.946" y="27.2798" width="6.0811" height="6.06996" rx="1.34409" fill="white"/>
<rect x="435.271" y="27.2798" width="6.08109" height="6.06996" rx="1.34409" fill="white"/>
<rect x="459.595" y="27.2798" width="6.0811" height="6.06996" rx="1.34409" fill="white"/>
<rect x="483.919" y="27.2798" width="6.08109" height="6.06996" rx="1.34409" fill="white"/>
<rect x="265" y="51.5597" width="6.08109" height="6.06996" rx="1.34409" fill="white"/>
<rect x="289.324" y="51.5597" width="6.08109" height="6.06996" rx="1.34409" fill="white"/>
<rect x="313.649" y="51.5597" width="6.08109" height="6.06996" rx="1.34409" fill="white"/>
<rect x="337.973" y="51.5597" width="6.08109" height="6.06996" rx="1.34409" fill="white"/>
<rect x="362.297" y="51.5597" width="6.08109" height="6.06996" rx="1.34409" fill="white"/>
<rect x="386.622" y="51.5597" width="6.08109" height="6.06996" rx="1.34409" fill="white"/>
<rect x="410.946" y="51.5597" width="6.0811" height="6.06996" rx="1.34409" fill="white"/>
<rect x="435.271" y="51.5597" width="6.08109" height="6.06996" rx="1.34409" fill="white"/>
<rect x="459.595" y="51.5597" width="6.0811" height="6.06996" rx="1.34409" fill="white"/>
<rect x="483.919" y="51.5597" width="6.08109" height="6.06996" rx="1.34409" fill="white"/>
<rect x="265" y="75.8395" width="6.08109" height="6.06995" rx="1.34409" fill="white"/>
<rect x="289.324" y="75.8395" width="6.08109" height="6.06995" rx="1.34409" fill="white"/>
<rect x="313.649" y="75.8395" width="6.08109" height="6.06995" rx="1.34409" fill="white"/>
<rect x="337.973" y="75.8395" width="6.08109" height="6.06995" rx="1.34409" fill="white"/>
<rect x="362.297" y="75.8395" width="6.08109" height="6.06995" rx="1.34409" fill="white"/>
<rect x="386.622" y="75.8395" width="6.08109" height="6.06995" rx="1.34409" fill="white"/>
<rect x="410.946" y="75.8395" width="6.0811" height="6.06995" rx="1.34409" fill="white"/>
<rect x="435.271" y="75.8395" width="6.08109" height="6.06995" rx="1.34409" fill="white"/>
<rect x="459.595" y="75.8395" width="6.0811" height="6.06995" rx="1.34409" fill="white"/>
<rect x="483.919" y="75.8395" width="6.08109" height="6.06995" rx="1.34409" fill="white"/>
<rect x="265" y="100.119" width="6.08109" height="6.06996" rx="1.34409" fill="white"/>
<rect x="289.324" y="100.119" width="6.08109" height="6.06996" rx="1.34409" fill="white"/>
<rect x="313.649" y="100.119" width="6.08109" height="6.06996" rx="1.34409" fill="white"/>
<rect x="337.973" y="100.119" width="6.08109" height="6.06996" rx="1.34409" fill="white"/>
<rect x="362.297" y="100.119" width="6.08109" height="6.06996" rx="1.34409" fill="white"/>
<rect x="386.622" y="100.119" width="6.08109" height="6.06996" rx="1.34409" fill="white"/>
<rect x="410.946" y="100.119" width="6.0811" height="6.06996" rx="1.34409" fill="white"/>
<rect x="435.271" y="100.119" width="6.08109" height="6.06996" rx="1.34409" fill="white"/>
<rect x="459.595" y="100.119" width="6.0811" height="6.06996" rx="1.34409" fill="white"/>
<rect x="483.919" y="100.119" width="6.08109" height="6.06996" rx="1.34409" fill="white"/>
<rect x="265" y="124.399" width="6.08109" height="6.06996" rx="1.34409" fill="white"/>
<rect x="289.324" y="124.399" width="6.08109" height="6.06996" rx="1.34409" fill="white"/>
<rect x="313.649" y="124.399" width="6.08109" height="6.06996" rx="1.34409" fill="white"/>
<rect x="337.973" y="124.399" width="6.08109" height="6.06996" rx="1.34409" fill="white"/>
<rect x="362.297" y="124.399" width="6.08109" height="6.06996" rx="1.34409" fill="white"/>
<rect x="386.622" y="124.399" width="6.08109" height="6.06996" rx="1.34409" fill="white"/>
<rect x="410.946" y="124.399" width="6.0811" height="6.06996" rx="1.34409" fill="white"/>
<rect x="435.271" y="124.399" width="6.08109" height="6.06996" rx="1.34409" fill="white"/>
<rect x="459.595" y="124.399" width="6.0811" height="6.06996" rx="1.34409" fill="white"/>
<rect x="483.919" y="124.399" width="6.08109" height="6.06996" rx="1.34409" fill="white"/>
<rect x="265" y="148.679" width="6.08109" height="6.06996" rx="1.34409" fill="white"/>
<rect x="265" y="172.096" width="6.08109" height="6.06996" rx="1.34409" fill="white"/>
<rect x="265" y="195.513" width="6.08109" height="6.06996" rx="1.34409" fill="white"/>
<rect x="265" y="218.93" width="6.08109" height="6.06996" rx="1.34409" fill="white"/>
<rect x="289.324" y="148.679" width="6.08109" height="6.06996" rx="1.34409" fill="white"/>
<rect x="289.324" y="172.096" width="6.08109" height="6.06996" rx="1.34409" fill="white"/>
<rect x="289.324" y="195.513" width="6.08109" height="6.06996" rx="1.34409" fill="white"/>
<rect x="289.324" y="218.93" width="6.08109" height="6.06996" rx="1.34409" fill="white"/>
<rect x="313.649" y="148.679" width="6.08109" height="6.06996" rx="1.34409" fill="white"/>
<rect x="313.649" y="172.096" width="6.08109" height="6.06996" rx="1.34409" fill="white"/>
<rect x="313.649" y="195.513" width="6.08109" height="6.06996" rx="1.34409" fill="white"/>
<rect x="313.649" y="218.93" width="6.08109" height="6.06996" rx="1.34409" fill="white"/>
<rect x="337.973" y="148.679" width="6.08109" height="6.06996" rx="1.34409" fill="white"/>
<rect x="337.973" y="172.096" width="6.08109" height="6.06996" rx="1.34409" fill="white"/>
<rect x="337.973" y="195.513" width="6.08109" height="6.06996" rx="1.34409" fill="white"/>
<rect x="337.973" y="218.93" width="6.08109" height="6.06996" rx="1.34409" fill="white"/>
<rect x="362.297" y="148.679" width="6.08109" height="6.06996" rx="1.34409" fill="white"/>
<rect x="362.297" y="172.096" width="6.08109" height="6.06996" rx="1.34409" fill="white"/>
<rect x="362.297" y="195.513" width="6.08109" height="6.06996" rx="1.34409" fill="white"/>
<rect x="362.297" y="218.93" width="6.08109" height="6.06996" rx="1.34409" fill="white"/>
<rect x="386.622" y="148.679" width="6.08109" height="6.06996" rx="1.34409" fill="white"/>
<rect x="386.622" y="172.096" width="6.08109" height="6.06996" rx="1.34409" fill="white"/>
<rect x="386.622" y="195.513" width="6.08109" height="6.06996" rx="1.34409" fill="white"/>
<rect x="386.622" y="218.93" width="6.08109" height="6.06996" rx="1.34409" fill="white"/>
<rect x="410.946" y="148.679" width="6.0811" height="6.06996" rx="1.34409" fill="white"/>
<rect x="410.946" y="172.096" width="6.0811" height="6.06996" rx="1.34409" fill="white"/>
<rect x="410.946" y="195.513" width="6.0811" height="6.06996" rx="1.34409" fill="white"/>
<rect x="410.946" y="218.93" width="6.0811" height="6.06996" rx="1.34409" fill="white"/>
<rect x="435.271" y="148.679" width="6.08109" height="6.06996" rx="1.34409" fill="white"/>
<rect x="435.271" y="172.096" width="6.08109" height="6.06996" rx="1.34409" fill="white"/>
<rect x="435.271" y="195.513" width="6.08109" height="6.06996" rx="1.34409" fill="white"/>
<rect x="435.271" y="218.93" width="6.08109" height="6.06996" rx="1.34409" fill="white"/>
<rect x="459.595" y="148.679" width="6.0811" height="6.06996" rx="1.34409" fill="white"/>
<rect x="459.595" y="172.096" width="6.0811" height="6.06996" rx="1.34409" fill="white"/>
<rect x="459.595" y="195.513" width="6.0811" height="6.06996" rx="1.34409" fill="white"/>
<rect x="459.595" y="218.93" width="6.0811" height="6.06996" rx="1.34409" fill="white"/>
<rect x="483.919" y="148.679" width="6.08109" height="6.06996" rx="1.34409" fill="white"/>
<rect x="483.919" y="172.096" width="6.08109" height="6.06996" rx="1.34409" fill="white"/>
<rect x="483.919" y="195.513" width="6.08109" height="6.06996" rx="1.34409" fill="white"/>
<rect x="483.919" y="218.93" width="6.08109" height="6.06996" rx="1.34409" fill="white"/>
<rect y="275" width="6.08109" height="6.06996" rx="1.34409" fill="white"/>
<rect x="24.3245" y="275" width="6.08109" height="6.06996" rx="1.34409" fill="white"/>
<rect x="48.6489" y="275" width="6.08109" height="6.06996" rx="1.34409" fill="white"/>
<rect x="72.973" y="275" width="6.08109" height="6.06996" rx="1.34409" fill="white"/>
<rect x="97.2974" y="275" width="6.08109" height="6.06996" rx="1.34409" fill="white"/>
<rect x="121.622" y="275" width="6.08109" height="6.06996" rx="1.34409" fill="white"/>
<rect x="145.946" y="275" width="6.0811" height="6.06996" rx="1.34409" fill="white"/>
<rect x="170.271" y="275" width="6.08109" height="6.06996" rx="1.34409" fill="white"/>
<rect x="194.595" y="275" width="6.0811" height="6.06996" rx="1.34409" fill="white"/>
<rect x="218.919" y="275" width="6.08109" height="6.06996" rx="1.34409" fill="white"/>
<rect y="299.28" width="6.08109" height="6.06996" rx="1.34409" fill="white"/>
<rect x="24.3245" y="299.28" width="6.08109" height="6.06996" rx="1.34409" fill="white"/>
<rect x="48.6489" y="299.28" width="6.08109" height="6.06996" rx="1.34409" fill="white"/>
<rect x="72.973" y="299.28" width="6.08109" height="6.06996" rx="1.34409" fill="white"/>
<rect x="97.2974" y="299.28" width="6.08109" height="6.06996" rx="1.34409" fill="white"/>
<rect x="121.622" y="299.28" width="6.08109" height="6.06996" rx="1.34409" fill="white"/>
<rect x="145.946" y="299.28" width="6.0811" height="6.06996" rx="1.34409" fill="white"/>
<rect x="170.271" y="299.28" width="6.08109" height="6.06996" rx="1.34409" fill="white"/>
<rect x="194.595" y="299.28" width="6.0811" height="6.06996" rx="1.34409" fill="white"/>
<rect x="218.919" y="299.28" width="6.08109" height="6.06996" rx="1.34409" fill="white"/>
<rect y="323.56" width="6.08109" height="6.06996" rx="1.34409" fill="white"/>
<rect x="24.3245" y="323.56" width="6.08109" height="6.06996" rx="1.34409" fill="white"/>
<rect x="48.6489" y="323.56" width="6.08109" height="6.06996" rx="1.34409" fill="white"/>
<rect x="72.973" y="323.56" width="6.08109" height="6.06996" rx="1.34409" fill="white"/>
<rect x="97.2974" y="323.56" width="6.08109" height="6.06996" rx="1.34409" fill="white"/>
<rect x="121.622" y="323.56" width="6.08109" height="6.06996" rx="1.34409" fill="white"/>
<rect x="145.946" y="323.56" width="6.0811" height="6.06996" rx="1.34409" fill="white"/>
<rect x="170.271" y="323.56" width="6.08109" height="6.06996" rx="1.34409" fill="white"/>
<rect x="194.595" y="323.56" width="6.0811" height="6.06996" rx="1.34409" fill="white"/>
<rect x="218.919" y="323.56" width="6.08109" height="6.06996" rx="1.34409" fill="white"/>
<rect y="347.839" width="6.08109" height="6.06995" rx="1.34409" fill="white"/>
<rect x="24.3245" y="347.839" width="6.08109" height="6.06995" rx="1.34409" fill="white"/>
<rect x="48.6489" y="347.839" width="6.08109" height="6.06995" rx="1.34409" fill="white"/>
<rect x="72.973" y="347.839" width="6.08109" height="6.06995" rx="1.34409" fill="white"/>
<rect x="97.2974" y="347.839" width="6.08109" height="6.06995" rx="1.34409" fill="white"/>
<rect x="121.622" y="347.839" width="6.08109" height="6.06995" rx="1.34409" fill="white"/>
<rect x="145.946" y="347.839" width="6.0811" height="6.06995" rx="1.34409" fill="white"/>
<rect x="170.271" y="347.839" width="6.08109" height="6.06995" rx="1.34409" fill="white"/>
<rect x="194.595" y="347.839" width="6.0811" height="6.06995" rx="1.34409" fill="white"/>
<rect x="218.919" y="347.839" width="6.08109" height="6.06995" rx="1.34409" fill="white"/>
<rect y="372.119" width="6.08109" height="6.06996" rx="1.34409" fill="white"/>
<rect x="24.3245" y="372.119" width="6.08109" height="6.06996" rx="1.34409" fill="white"/>
<rect x="48.6489" y="372.119" width="6.08109" height="6.06996" rx="1.34409" fill="white"/>
<rect x="72.973" y="372.119" width="6.08109" height="6.06996" rx="1.34409" fill="white"/>
<rect x="97.2974" y="372.119" width="6.08109" height="6.06996" rx="1.34409" fill="white"/>
<rect x="121.622" y="372.119" width="6.08109" height="6.06996" rx="1.34409" fill="white"/>
<rect x="145.946" y="372.119" width="6.0811" height="6.06996" rx="1.34409" fill="white"/>
<rect x="170.271" y="372.119" width="6.08109" height="6.06996" rx="1.34409" fill="white"/>
<rect x="194.595" y="372.119" width="6.0811" height="6.06996" rx="1.34409" fill="white"/>
<rect x="218.919" y="372.119" width="6.08109" height="6.06996" rx="1.34409" fill="white"/>
<rect y="396.399" width="6.08109" height="6.06996" rx="1.34409" fill="white"/>
<rect x="24.3245" y="396.399" width="6.08109" height="6.06996" rx="1.34409" fill="white"/>
<rect x="48.6489" y="396.399" width="6.08109" height="6.06996" rx="1.34409" fill="white"/>
<rect x="72.973" y="396.399" width="6.08109" height="6.06996" rx="1.34409" fill="white"/>
<rect x="97.2974" y="396.399" width="6.08109" height="6.06996" rx="1.34409" fill="white"/>
<rect x="121.622" y="396.399" width="6.08109" height="6.06996" rx="1.34409" fill="white"/>
<rect x="145.946" y="396.399" width="6.0811" height="6.06996" rx="1.34409" fill="white"/>
<rect x="170.271" y="396.399" width="6.08109" height="6.06996" rx="1.34409" fill="white"/>
<rect x="194.595" y="396.399" width="6.0811" height="6.06996" rx="1.34409" fill="white"/>
<rect x="218.919" y="396.399" width="6.08109" height="6.06996" rx="1.34409" fill="white"/>
<rect y="420.679" width="6.08109" height="6.06996" rx="1.34409" fill="white"/>
<rect y="444.096" width="6.08109" height="6.06996" rx="1.34409" fill="white"/>
<rect y="467.513" width="6.08109" height="6.06996" rx="1.34409" fill="white"/>
<rect y="490.93" width="6.08109" height="6.06996" rx="1.34409" fill="white"/>
<rect x="24.3245" y="420.679" width="6.08109" height="6.06996" rx="1.34409" fill="white"/>
<rect x="24.3245" y="444.096" width="6.08109" height="6.06996" rx="1.34409" fill="white"/>
<rect x="24.3245" y="467.513" width="6.08109" height="6.06996" rx="1.34409" fill="white"/>
<rect x="24.3245" y="490.93" width="6.08109" height="6.06996" rx="1.34409" fill="white"/>
<rect x="48.6489" y="420.679" width="6.08109" height="6.06996" rx="1.34409" fill="white"/>
<rect x="48.6489" y="444.096" width="6.08109" height="6.06996" rx="1.34409" fill="white"/>
<rect x="48.6489" y="467.513" width="6.08109" height="6.06996" rx="1.34409" fill="white"/>
<rect x="48.6489" y="490.93" width="6.08109" height="6.06996" rx="1.34409" fill="white"/>
<rect x="72.973" y="420.679" width="6.08109" height="6.06996" rx="1.34409" fill="white"/>
<rect x="72.973" y="444.096" width="6.08109" height="6.06996" rx="1.34409" fill="white"/>
<rect x="72.973" y="467.513" width="6.08109" height="6.06996" rx="1.34409" fill="white"/>
<rect x="72.973" y="490.93" width="6.08109" height="6.06996" rx="1.34409" fill="white"/>
<rect x="97.2974" y="420.679" width="6.08109" height="6.06996" rx="1.34409" fill="white"/>
<rect x="97.2974" y="444.096" width="6.08109" height="6.06996" rx="1.34409" fill="white"/>
<rect x="97.2974" y="467.513" width="6.08109" height="6.06996" rx="1.34409" fill="white"/>
<rect x="97.2974" y="490.93" width="6.08109" height="6.06996" rx="1.34409" fill="white"/>
<rect x="121.622" y="420.679" width="6.08109" height="6.06996" rx="1.34409" fill="white"/>
<rect x="121.622" y="444.096" width="6.08109" height="6.06996" rx="1.34409" fill="white"/>
<rect x="121.622" y="467.513" width="6.08109" height="6.06996" rx="1.34409" fill="white"/>
<rect x="121.622" y="490.93" width="6.08109" height="6.06996" rx="1.34409" fill="white"/>
<rect x="145.946" y="420.679" width="6.0811" height="6.06996" rx="1.34409" fill="white"/>
<rect x="145.946" y="444.096" width="6.0811" height="6.06996" rx="1.34409" fill="white"/>
<rect x="145.946" y="467.513" width="6.0811" height="6.06996" rx="1.34409" fill="white"/>
<rect x="145.946" y="490.93" width="6.0811" height="6.06996" rx="1.34409" fill="white"/>
<rect x="170.271" y="420.679" width="6.08109" height="6.06996" rx="1.34409" fill="white"/>
<rect x="170.271" y="444.096" width="6.08109" height="6.06996" rx="1.34409" fill="white"/>
<rect x="170.271" y="467.513" width="6.08109" height="6.06996" rx="1.34409" fill="white"/>
<rect x="170.271" y="490.93" width="6.08109" height="6.06996" rx="1.34409" fill="white"/>
<rect x="194.595" y="420.679" width="6.0811" height="6.06996" rx="1.34409" fill="white"/>
<rect x="194.595" y="444.096" width="6.0811" height="6.06996" rx="1.34409" fill="white"/>
<rect x="194.595" y="467.513" width="6.0811" height="6.06996" rx="1.34409" fill="white"/>
<rect x="194.595" y="490.93" width="6.0811" height="6.06996" rx="1.34409" fill="white"/>
<rect x="218.919" y="420.679" width="6.08109" height="6.06996" rx="1.34409" fill="white"/>
<rect x="218.919" y="444.096" width="6.08109" height="6.06996" rx="1.34409" fill="white"/>
<rect x="218.919" y="467.513" width="6.08109" height="6.06996" rx="1.34409" fill="white"/>
<rect x="218.919" y="490.93" width="6.08109" height="6.06996" rx="1.34409" fill="white"/>
<rect width="6.08109" height="6.06996" rx="1.34409" fill="white"/>
<rect x="24.3245" width="6.08109" height="6.06996" rx="1.34409" fill="white"/>
<rect x="48.6489" width="6.08109" height="6.06996" rx="1.34409" fill="white"/>
<rect x="72.973" width="6.08109" height="6.06996" rx="1.34409" fill="white"/>
<rect x="97.2974" width="6.08109" height="6.06996" rx="1.34409" fill="white"/>
<rect x="121.622" width="6.08109" height="6.06996" rx="1.34409" fill="white"/>
<rect x="145.946" width="6.0811" height="6.06996" rx="1.34409" fill="white"/>
<rect x="170.271" width="6.08109" height="6.06996" rx="1.34409" fill="white"/>
<rect x="194.595" width="6.0811" height="6.06996" rx="1.34409" fill="white"/>
<rect x="218.919" width="6.08109" height="6.06996" rx="1.34409" fill="white"/>
<rect y="24.2798" width="6.08109" height="6.06996" rx="1.34409" fill="white"/>
<rect x="24.3245" y="24.2798" width="6.08109" height="6.06996" rx="1.34409" fill="white"/>
<rect x="48.6489" y="24.2798" width="6.08109" height="6.06996" rx="1.34409" fill="white"/>
<rect x="72.973" y="24.2798" width="6.08109" height="6.06996" rx="1.34409" fill="white"/>
<rect x="97.2974" y="24.2798" width="6.08109" height="6.06996" rx="1.34409" fill="white"/>
<rect x="121.622" y="24.2798" width="6.08109" height="6.06996" rx="1.34409" fill="white"/>
<rect x="145.946" y="24.2798" width="6.0811" height="6.06996" rx="1.34409" fill="white"/>
<rect x="170.271" y="24.2798" width="6.08109" height="6.06996" rx="1.34409" fill="white"/>
<rect x="194.595" y="24.2798" width="6.0811" height="6.06996" rx="1.34409" fill="white"/>
<rect x="218.919" y="24.2798" width="6.08109" height="6.06996" rx="1.34409" fill="white"/>
<rect y="48.5597" width="6.08109" height="6.06996" rx="1.34409" fill="white"/>
<rect x="24.3245" y="48.5597" width="6.08109" height="6.06996" rx="1.34409" fill="white"/>
<rect x="48.6489" y="48.5597" width="6.08109" height="6.06996" rx="1.34409" fill="white"/>
<rect x="72.973" y="48.5597" width="6.08109" height="6.06996" rx="1.34409" fill="white"/>
<rect x="97.2974" y="48.5597" width="6.08109" height="6.06996" rx="1.34409" fill="white"/>
<rect x="121.622" y="48.5597" width="6.08109" height="6.06996" rx="1.34409" fill="white"/>
<rect x="145.946" y="48.5597" width="6.0811" height="6.06996" rx="1.34409" fill="white"/>
<rect x="170.271" y="48.5597" width="6.08109" height="6.06996" rx="1.34409" fill="white"/>
<rect x="194.595" y="48.5597" width="6.0811" height="6.06996" rx="1.34409" fill="white"/>
<rect x="218.919" y="48.5597" width="6.08109" height="6.06996" rx="1.34409" fill="white"/>
<rect y="72.8395" width="6.08109" height="6.06995" rx="1.34409" fill="white"/>
<rect x="24.3245" y="72.8395" width="6.08109" height="6.06995" rx="1.34409" fill="white"/>
<rect x="48.6489" y="72.8395" width="6.08109" height="6.06995" rx="1.34409" fill="white"/>
<rect x="72.973" y="72.8395" width="6.08109" height="6.06995" rx="1.34409" fill="white"/>
<rect x="97.2974" y="72.8395" width="6.08109" height="6.06995" rx="1.34409" fill="white"/>
<rect x="121.622" y="72.8395" width="6.08109" height="6.06995" rx="1.34409" fill="white"/>
<rect x="145.946" y="72.8395" width="6.0811" height="6.06995" rx="1.34409" fill="white"/>
<rect x="170.271" y="72.8395" width="6.08109" height="6.06995" rx="1.34409" fill="white"/>
<rect x="194.595" y="72.8395" width="6.0811" height="6.06995" rx="1.34409" fill="white"/>
<rect x="218.919" y="72.8395" width="6.08109" height="6.06995" rx="1.34409" fill="white"/>
<rect y="97.1194" width="6.08109" height="6.06996" rx="1.34409" fill="white"/>
<rect x="24.3245" y="97.1194" width="6.08109" height="6.06996" rx="1.34409" fill="white"/>
<rect x="48.6489" y="97.1194" width="6.08109" height="6.06996" rx="1.34409" fill="white"/>
<rect x="72.973" y="97.1194" width="6.08109" height="6.06996" rx="1.34409" fill="white"/>
<rect x="97.2974" y="97.1194" width="6.08109" height="6.06996" rx="1.34409" fill="white"/>
<rect x="121.622" y="97.1194" width="6.08109" height="6.06996" rx="1.34409" fill="white"/>
<rect x="145.946" y="97.1194" width="6.0811" height="6.06996" rx="1.34409" fill="white"/>
<rect x="170.271" y="97.1194" width="6.08109" height="6.06996" rx="1.34409" fill="white"/>
<rect x="194.595" y="97.1194" width="6.0811" height="6.06996" rx="1.34409" fill="white"/>
<rect x="218.919" y="97.1194" width="6.08109" height="6.06996" rx="1.34409" fill="white"/>
<rect y="121.399" width="6.08109" height="6.06996" rx="1.34409" fill="white"/>
<rect x="24.3245" y="121.399" width="6.08109" height="6.06996" rx="1.34409" fill="white"/>
<rect x="48.6489" y="121.399" width="6.08109" height="6.06996" rx="1.34409" fill="white"/>
<rect x="72.973" y="121.399" width="6.08109" height="6.06996" rx="1.34409" fill="white"/>
<rect x="97.2974" y="121.399" width="6.08109" height="6.06996" rx="1.34409" fill="white"/>
<rect x="121.622" y="121.399" width="6.08109" height="6.06996" rx="1.34409" fill="white"/>
<rect x="145.946" y="121.399" width="6.0811" height="6.06996" rx="1.34409" fill="white"/>
<rect x="170.271" y="121.399" width="6.08109" height="6.06996" rx="1.34409" fill="white"/>
<rect x="194.595" y="121.399" width="6.0811" height="6.06996" rx="1.34409" fill="white"/>
<rect x="218.919" y="121.399" width="6.08109" height="6.06996" rx="1.34409" fill="white"/>
<rect y="145.679" width="6.08109" height="6.06996" rx="1.34409" fill="white"/>
<rect y="169.096" width="6.08109" height="6.06996" rx="1.34409" fill="white"/>
<rect y="192.513" width="6.08109" height="6.06996" rx="1.34409" fill="white"/>
<rect y="215.93" width="6.08109" height="6.06996" rx="1.34409" fill="white"/>
<rect x="24.3245" y="145.679" width="6.08109" height="6.06996" rx="1.34409" fill="white"/>
<rect x="24.3245" y="169.096" width="6.08109" height="6.06996" rx="1.34409" fill="white"/>
<rect x="24.3245" y="192.513" width="6.08109" height="6.06996" rx="1.34409" fill="white"/>
<rect x="24.3245" y="215.93" width="6.08109" height="6.06996" rx="1.34409" fill="white"/>
<rect x="48.6489" y="145.679" width="6.08109" height="6.06996" rx="1.34409" fill="white"/>
<rect x="48.6489" y="169.096" width="6.08109" height="6.06996" rx="1.34409" fill="white"/>
<rect x="48.6489" y="192.513" width="6.08109" height="6.06996" rx="1.34409" fill="white"/>
<rect x="48.6489" y="215.93" width="6.08109" height="6.06996" rx="1.34409" fill="white"/>
<rect x="72.973" y="145.679" width="6.08109" height="6.06996" rx="1.34409" fill="white"/>
<rect x="72.973" y="169.096" width="6.08109" height="6.06996" rx="1.34409" fill="white"/>
<rect x="72.973" y="192.513" width="6.08109" height="6.06996" rx="1.34409" fill="white"/>
<rect x="72.973" y="215.93" width="6.08109" height="6.06996" rx="1.34409" fill="white"/>
<rect x="97.2974" y="145.679" width="6.08109" height="6.06996" rx="1.34409" fill="white"/>
<rect x="97.2974" y="169.096" width="6.08109" height="6.06996" rx="1.34409" fill="white"/>
<rect x="97.2974" y="192.513" width="6.08109" height="6.06996" rx="1.34409" fill="white"/>
<rect x="97.2974" y="215.93" width="6.08109" height="6.06996" rx="1.34409" fill="white"/>
<rect x="121.622" y="145.679" width="6.08109" height="6.06996" rx="1.34409" fill="white"/>
<rect x="121.622" y="169.096" width="6.08109" height="6.06996" rx="1.34409" fill="white"/>
<rect x="121.622" y="192.513" width="6.08109" height="6.06996" rx="1.34409" fill="white"/>
<rect x="121.622" y="215.93" width="6.08109" height="6.06996" rx="1.34409" fill="white"/>
<rect x="145.946" y="145.679" width="6.0811" height="6.06996" rx="1.34409" fill="white"/>
<rect x="145.946" y="169.096" width="6.0811" height="6.06996" rx="1.34409" fill="white"/>
<rect x="145.946" y="192.513" width="6.0811" height="6.06996" rx="1.34409" fill="white"/>
<rect x="145.946" y="215.93" width="6.0811" height="6.06996" rx="1.34409" fill="white"/>
<rect x="170.271" y="145.679" width="6.08109" height="6.06996" rx="1.34409" fill="white"/>
<rect x="170.271" y="169.096" width="6.08109" height="6.06996" rx="1.34409" fill="white"/>
<rect x="170.271" y="192.513" width="6.08109" height="6.06996" rx="1.34409" fill="white"/>
<rect x="170.271" y="215.93" width="6.08109" height="6.06996" rx="1.34409" fill="white"/>
<rect x="194.595" y="145.679" width="6.0811" height="6.06996" rx="1.34409" fill="white"/>
<rect x="194.595" y="169.096" width="6.0811" height="6.06996" rx="1.34409" fill="white"/>
<rect x="194.595" y="192.513" width="6.0811" height="6.06996" rx="1.34409" fill="white"/>
<rect x="194.595" y="215.93" width="6.0811" height="6.06996" rx="1.34409" fill="white"/>
<rect x="218.919" y="145.679" width="6.08109" height="6.06996" rx="1.34409" fill="white"/>
<rect x="218.919" y="169.096" width="6.08109" height="6.06996" rx="1.34409" fill="white"/>
<rect x="218.919" y="192.513" width="6.08109" height="6.06996" rx="1.34409" fill="white"/>
<rect x="218.919" y="215.93" width="6.08109" height="6.06996" rx="1.34409" fill="white"/>
</svg>
